<?xml version="1.0" standalone="no"?>
<!DOCTYPE svg PUBLIC "-//W3C//DTD SVG 20010904//EN"
 "http://www.w3.org/TR/2001/REC-SVG-20010904/DTD/svg10.dtd">
<svg version="1.0" xmlns="http://www.w3.org/2000/svg"
 width="1080.000000pt" height="1080.000000pt" viewBox="0 0 1080.000000 1080.000000"
 preserveAspectRatio="xMidYMid meet">

<g transform="translate(0.000000,1080.000000) scale(0.100000,-0.100000)"
fill="#000000" stroke="none">
<path d="M779 7347 c8 -9 46 -34 85 -55 39 -20 90 -52 113 -69 50 -38 56 -35
13 7 -17 17 -27 30 -22 30 4 0 13 -5 20 -12 9 -9 12 -9 12 0 0 6 -11 14 -25
18 -20 5 -23 9 -14 20 9 11 8 14 -7 14 -36 0 -149 33 -169 49 -18 15 -19 15
-6 -2z"/>
<path d="M1791 7175 c-159 -30 -263 -83 -387 -198 -78 -72 -83 -74 -144 -81
-56 -6 -67 -5 -92 14 -20 15 -33 18 -41 11 -8 -6 -31 -3 -72 12 -90 32 -229
29 -311 -5 -81 -34 -126 -65 -202 -141 -66 -64 -128 -152 -177 -247 -15 -30
-36 -71 -45 -90 -65 -126 -140 -427 -161 -645 -12 -124 -7 -371 10 -455 5 -25
17 -103 26 -175 19 -158 39 -221 120 -392 74 -155 107 -205 194 -297 152 -159
332 -239 596 -267 156 -16 490 -17 610 -1 55 8 199 17 320 22 221 9 284 18
420 65 69 23 235 102 257 122 10 9 18 13 18 9 0 -6 35 18 221 148 65 46 240
224 300 306 85 117 163 253 173 302 2 7 9 27 15 43 30 72 61 225 67 330 23
402 -146 792 -487 1120 -107 103 -191 175 -203 175 -4 0 -17 9 -29 21 -62 59
-303 184 -452 234 -196 66 -398 88 -544 60z m570 -631 c150 -75 159 -311 18
-453 -42 -41 -43 -43 -16 -37 16 4 27 2 27 -4 0 -5 -7 -10 -15 -10 -8 0 -15
-5 -15 -11 0 -6 7 -8 16 -5 9 3 25 -1 37 -10 l22 -16 -22 5 c-31 7 -29 -1 3
-13 17 -7 24 -15 20 -25 -3 -8 -1 -17 4 -20 17 -10 11 -25 -12 -35 -18 -7 -19
-9 -5 -9 9 -1 17 -5 17 -11 0 -5 6 -10 13 -10 24 0 77 -69 77 -101 0 -20 4
-28 11 -23 8 4 9 -1 3 -17 -18 -49 -4 -139 21 -139 11 0 15 -11 15 -39 0 -22
4 -41 9 -43 13 -5 26 -158 13 -158 -5 0 -13 36 -17 80 -7 83 -25 111 -25 40 0
-22 5 -40 10 -40 6 0 10 -18 10 -39 0 -22 5 -43 10 -46 6 -3 10 -13 10 -21 0
-9 7 -23 16 -32 11 -10 13 -17 5 -20 -6 -2 -11 -21 -11 -43 0 -28 -4 -39 -15
-39 -11 0 -15 -11 -15 -39 0 -25 -5 -41 -15 -45 -8 -3 -15 0 -16 7 0 7 -5 -1
-10 -18 -5 -16 -6 -44 -3 -60 3 -19 -1 -41 -11 -60 -15 -26 -16 -27 -10 -5 17
63 18 73 6 66 -6 -4 -11 -15 -11 -25 0 -10 -16 -49 -36 -87 -164 -313 -501
-499 -870 -481 -221 12 -357 68 -491 205 -36 37 -70 66 -75 64 -5 -1 -7 2 -3
8 3 5 -7 29 -23 52 -98 143 -163 300 -184 446 -9 67 -8 91 6 156 15 67 22 80
49 98 18 11 24 18 15 15 -12 -4 -15 -2 -12 8 4 10 12 11 30 4 18 -6 23 -6 18
2 -4 7 0 9 12 6 11 -4 33 -8 49 -11 l30 -6 -31 11 -31 11 -6 116 c-4 74 -11
118 -19 123 -7 4 7 9 32 12 25 2 3 3 -48 2 -51 -1 -87 2 -80 7 9 5 7 8 -7 8
-12 0 -27 -6 -34 -12 -10 -11 -11 -10 -6 3 4 11 -3 20 -24 28 -81 34 -145 139
-145 241 0 83 15 126 62 176 20 21 36 43 34 47 -1 5 2 6 7 3 5 -3 32 5 59 19
62 31 75 32 66 3 -3 -13 -10 -27 -14 -33 -19 -24 -22 -85 -5 -134 18 -54 94
-135 138 -146 14 -4 28 -13 31 -20 5 -14 76 -39 85 -30 2 3 -10 8 -27 11 -20
4 -29 11 -25 20 3 8 9 14 15 14 5 0 6 -4 3 -10 -3 -6 4 -10 17 -9 13 0 17 3 9
6 -11 4 -11 7 0 14 7 4 21 3 31 -2 14 -8 16 -14 8 -28 -7 -14 -5 -23 10 -36
10 -9 24 -14 29 -10 6 3 11 1 11 -5 0 -7 7 -9 16 -6 27 10 10 -17 -22 -34 -16
-9 -29 -23 -29 -31 2 -115 20 -351 26 -355 5 -3 7 -9 4 -14 -3 -5 0 -12 6 -16
14 -8 131 -24 217 -29 67 -3 93 9 38 19 -26 5 -34 12 -34 29 -2 46 -10 83 -26
112 -9 17 -16 47 -16 68 0 20 -5 37 -10 37 -6 0 -10 19 -10 43 2 69 -11 192
-21 195 -5 2 -9 39 -9 83 0 46 -4 79 -10 79 -5 0 -10 18 -10 40 0 29 4 40 15
40 11 0 15 11 15 40 0 29 4 40 15 40 12 0 15 16 15 80 0 47 4 80 10 80 6 0 10
-18 10 -40 0 -40 0 -40 39 -40 22 0 41 5 44 13 4 10 7 10 18 0 11 -11 11 -13
-1 -13 -18 0 16 -37 41 -45 26 -9 24 -35 -2 -35 -18 0 -19 -2 -9 -15 7 -8 19
-15 27 -15 13 0 83 -63 83 -75 0 -2 -7 -2 -15 1 -8 4 -15 10 -15 15 0 14 -17
10 -23 -5 -4 -11 -1 -13 10 -9 9 4 14 2 11 -3 -4 -5 5 -10 19 -10 13 -1 33
-11 44 -23 24 -25 24 -32 2 -24 -15 5 -14 3 2 -10 11 -8 23 -13 27 -11 4 3 24
-13 44 -36 20 -22 41 -37 47 -33 6 3 7 1 3 -5 -4 -7 -4 -12 1 -12 4 0 22 -13
39 -28 18 -15 59 -47 92 -72 34 -25 61 -50 62 -56 0 -19 -76 -90 -125 -114
-51 -25 -54 -31 -34 -64 11 -18 14 -33 9 -36 -6 -4 -3 -23 7 -48 14 -33 23
-42 43 -42 18 0 21 -3 11 -9 -7 -5 -21 -7 -30 -4 -9 2 -25 -3 -36 -12 -19 -14
-18 -15 9 -5 16 6 31 8 34 5 4 -3 -4 -8 -16 -12 -12 -3 -22 -10 -22 -15 0 -10
16 -3 42 20 10 8 24 12 33 9 8 -4 15 -2 15 3 0 6 7 10 15 10 16 0 101 41 141
67 21 14 22 16 8 76 -29 124 -101 381 -115 409 -13 25 -11 28 9 21 9 -3 14 -3
10 2 -4 4 3 16 15 26 20 16 20 18 4 19 -17 0 -47 22 -47 34 0 3 11 6 25 6 23
0 25 4 25 41 l0 40 53 -3 c44 -3 52 -6 50 -22 -1 -11 2 -15 8 -9 6 6 6 19 -1
34 -8 18 -8 32 1 54 10 26 13 27 17 10 2 -10 -1 -21 -7 -23 -13 -4 -15 -22 -2
-22 6 0 22 11 37 25 14 13 30 22 35 20 8 -5 11 4 24 58 8 37 -19 128 -45 152
-11 10 -20 22 -20 26 0 20 192 23 231 3z m-1825 -492 c-13 -12 -17 8 -10 40
l9 33 3 -33 c2 -19 1 -36 -2 -40z m554 36 c0 -10 2 -10 9 0 11 19 21 -7 21
-56 0 -37 0 -37 -44 -39 -38 -1 -43 1 -39 17 3 11 14 22 25 26 16 5 19 12 14
35 -3 16 -1 29 4 29 6 0 10 -6 10 -12z m1340 2 c0 -5 -4 -10 -9 -10 -6 0 -13
5 -16 10 -3 6 1 10 9 10 9 0 16 -4 16 -10z m-33 -16 c-3 -3 -12 -4 -19 -1 -8
3 -5 6 6 6 11 1 17 -2 13 -5z m-676 -42 c-7 -2 -18 1 -23 6 -8 8 -4 9 13 5 13
-4 18 -8 10 -11z m-1194 -14 c-3 -8 -6 -5 -6 6 -1 11 2 17 5 13 3 -3 4 -12 1
-19z m428 -8 c3 -6 -1 -7 -9 -4 -18 7 -21 14 -7 14 6 0 13 -4 16 -10z m60 -20
c3 -5 2 -10 -4 -10 -5 0 -13 5 -16 10 -3 6 -2 10 4 10 5 0 13 -4 16 -10z
m-492 -77 c-7 -18 -7 -24 -13 -408 -2 -143 -5 -234 -7 -202 -3 41 -8 57 -18
57 -13 0 -15 30 -14 188 2 191 14 457 17 367 3 -60 21 -43 22 20 1 34 3 37 10
17 5 -12 6 -30 3 -39z m757 17 c0 -11 -4 -20 -10 -20 -5 0 -10 9 -10 20 0 11
5 20 10 20 6 0 10 -9 10 -20z m1195 -30 c8 -13 -5 -13 -25 0 -13 8 -13 10 2
10 9 0 20 -4 23 -10z m73 -115 c0 -16 -2 -15 -8 5 -11 34 -11 60 0 35 5 -11 8
-29 8 -40z m2 -92 c-11 -17 -11 -17 -6 0 3 10 6 24 7 30 0 9 2 9 5 0 3 -7 0
-20 -6 -30z m7 -65 c-3 -7 -5 -2 -5 12 0 14 2 19 5 13 2 -7 2 -19 0 -25z m74
-281 c-6 -6 -14 -7 -18 -2 -5 4 -2 10 5 12 6 3 13 23 14 46 l1 42 4 -44 c3
-24 0 -48 -6 -54z m-1214 77 c-3 -3 -12 -4 -19 -1 -8 3 -5 6 6 6 11 1 17 -2
13 -5z m-900 -246 c-3 -8 -6 -5 -6 6 -1 11 2 17 5 13 3 -3 4 -12 1 -19z m2030
-110 c-3 -8 -6 -5 -6 6 -1 11 2 17 5 13 3 -3 4 -12 1 -19z m-77 -185 c-11 -17
-11 -17 -6 0 3 10 6 24 7 30 0 9 2 9 5 0 3 -7 0 -20 -6 -30z"/>
<path d="M2135 6266 c-14 -14 -22 -31 -19 -39 3 -9 -4 -22 -17 -31 -13 -8 -20
-18 -17 -21 8 -8 58 53 58 71 0 8 4 14 9 14 5 0 11 7 15 15 8 22 -1 19 -29 -9z"/>
<path d="M2000 6153 c0 -5 5 -15 11 -23 9 -13 10 -13 6 2 -3 9 -1 19 6 22 7 2
4 5 -5 5 -10 1 -18 -2 -18 -6z"/>
<path d="M1486 6104 c-4 -14 -5 -28 -3 -31 3 -2 8 8 11 23 4 14 5 28 3 31 -3
2 -8 -8 -11 -23z"/>
<path d="M2020 6110 c-9 -6 -10 -10 -3 -10 6 0 15 5 18 10 8 12 4 12 -15 0z"/>
<path d="M1456 6083 c-6 -14 -5 -15 5 -6 7 7 10 15 7 18 -3 3 -9 -2 -12 -12z"/>
<path d="M1966 6065 c-3 -8 -1 -15 3 -15 5 0 11 7 15 15 3 8 1 15 -3 15 -5 0
-11 -7 -15 -15z"/>
<path d="M1960 6020 c0 -5 5 -10 11 -10 5 0 7 5 4 10 -3 6 -8 10 -11 10 -2 0
-4 -4 -4 -10z"/>
<path d="M1361 5874 c0 -11 3 -14 6 -6 3 7 2 16 -1 19 -3 4 -6 -2 -5 -13z"/>
<path d="M2448 5863 c7 -3 16 -2 19 1 4 3 -2 6 -13 5 -11 0 -14 -3 -6 -6z"/>
<path d="M1380 5810 c0 -5 5 -10 10 -10 6 0 10 5 10 10 0 6 -4 10 -10 10 -5 0
-10 -4 -10 -10z"/>
<path d="M2501 5804 c0 -11 3 -14 6 -6 3 7 2 16 -1 19 -3 4 -6 -2 -5 -13z"/>
<path d="M1032 5791 c-11 -7 -11 -9 0 -14 9 -3 15 1 15 9 0 8 -1 14 -1 14 -1
0 -7 -4 -14 -9z"/>
<path d="M1370 5766 c0 -8 4 -17 9 -20 5 -4 7 3 4 14 -6 23 -13 26 -13 6z"/>
<path d="M961 5713 c-1 -18 2 -33 7 -33 12 0 38 20 26 20 -6 0 -16 10 -22 23
-10 21 -11 20 -11 -10z"/>
<path d="M1364 5714 c1 -27 24 -40 40 -24 8 8 6 9 -8 4 -15 -6 -18 -4 -14 7 3
8 0 19 -7 26 -10 9 -13 7 -11 -13z"/>
<path d="M2551 5564 c0 -11 3 -14 6 -6 3 7 2 16 -1 19 -3 4 -6 -2 -5 -13z"/>
<path d="M1048 5483 c7 -3 16 -2 19 1 4 3 -2 6 -13 5 -11 0 -14 -3 -6 -6z"/>
<path d="M2575 5290 c-3 -5 -1 -10 4 -10 6 0 11 5 11 10 0 6 -2 10 -4 10 -3 0
-8 -4 -11 -10z"/>
<path d="M2552 5165 c0 -16 2 -22 5 -12 2 9 2 23 0 30 -3 6 -5 -1 -5 -18z"/>
<path d="M483 5720 c0 -25 2 -35 4 -22 2 12 2 32 0 45 -2 12 -4 2 -4 -23z"/>
<path d="M483 5480 c0 -25 2 -35 4 -22 2 12 2 32 0 45 -2 12 -4 2 -4 -23z"/>
<path d="M1071 7074 c0 -11 3 -14 6 -6 3 7 2 16 -1 19 -3 4 -6 -2 -5 -13z"/>
<path d="M1077 7044 c-4 -4 -7 -14 -6 -23 0 -12 3 -11 9 4 8 18 9 18 10 -5 2
-14 2 -29 1 -34 -3 -14 21 -56 31 -56 4 0 8 14 8 32 0 30 -1 31 -15 12 -14
-18 -14 -17 -5 9 6 18 6 27 -1 27 -5 0 -9 7 -7 16 3 18 -13 29 -25 18z"/>
<path d="M9340 6382 c-60 -28 -90 -73 -90 -134 0 -41 5 -54 35 -87 41 -45 35
-51 -46 -51 -84 0 -116 -59 -56 -104 39 -29 143 -27 214 4 98 42 149 124 141
227 -5 56 -25 92 -70 126 -27 20 -103 32 -128 19z"/>
<path d="M4333 6210 c-18 -10 -38 -29 -46 -42 -8 -13 -79 -205 -157 -428 -78
-223 -178 -506 -221 -628 -44 -123 -79 -233 -79 -244 0 -69 80 -120 167 -103
74 14 89 41 212 393 63 177 115 322 117 322 2 0 10 -13 19 -30 23 -45 68 -64
134 -57 31 3 65 9 77 12 13 4 29 -1 44 -13 35 -29 31 -76 -19 -202 -67 -167
-66 -256 3 -337 54 -63 121 -87 236 -87 104 0 172 21 239 71 22 17 38 23 46
17 101 -75 180 -100 294 -90 99 8 179 45 236 108 l44 49 58 -6 c33 -4 86 -2
123 5 53 10 65 9 69 -2 2 -7 27 -36 57 -65 69 -68 159 -99 268 -90 112 8 180
39 253 114 62 63 63 63 119 63 31 0 84 7 117 16 62 16 62 16 77 -8 85 -130
249 -198 451 -185 166 11 310 77 420 195 72 76 118 155 159 275 72 212 72 212
133 181 60 -31 61 -56 8 -202 -54 -146 -63 -189 -51 -252 13 -70 57 -130 122
-165 46 -26 63 -30 133 -30 68 0 88 4 135 28 30 16 65 38 77 49 l22 20 33 -25
c52 -40 127 -68 198 -74 166 -14 316 66 426 228 l49 71 6 -49 c8 -61 27 -98
76 -145 77 -74 218 -118 383 -118 309 0 516 115 636 354 55 111 56 149 5 183
-73 49 -130 24 -185 -83 -25 -49 -56 -91 -94 -125 l-57 -52 -6 79 c-6 73 -13
90 -88 239 -45 88 -81 165 -81 170 0 6 14 23 31 39 98 93 41 236 -94 236 -98
0 -124 -28 -256 -280 -100 -190 -104 -196 -154 -225 -29 -16 -55 -31 -58 -33
-3 -1 -11 9 -17 22 -21 47 -116 53 -164 9 -10 -9 -36 -53 -57 -97 -63 -134
-137 -207 -222 -221 -74 -13 -134 35 -122 96 3 14 42 131 87 260 l83 234 84 5
c94 6 122 17 144 60 21 41 19 75 -8 106 -20 23 -34 28 -84 32 l-61 4 61 177
c66 195 67 212 17 262 -33 34 -91 39 -140 14 -39 -20 -42 -27 -126 -255 l-71
-195 -59 -7 c-78 -10 -107 -23 -127 -57 -39 -67 -7 -138 66 -143 31 -2 41 -7
39 -18 -11 -50 -147 -421 -167 -455 -53 -90 -135 -146 -162 -109 -20 27 -17
40 44 205 49 135 56 164 57 230 1 68 -2 79 -27 113 -36 46 -112 96 -194 127
l-63 24 0 41 c0 110 -131 182 -221 121 -74 -50 -102 -163 -60 -246 l20 -38
-64 -170 c-80 -216 -91 -237 -157 -299 -92 -87 -211 -132 -320 -120 -110 11
-168 59 -168 138 0 70 7 74 84 48 216 -73 439 73 454 296 6 93 -15 156 -70
213 -129 134 -377 125 -512 -19 -55 -59 -71 -91 -131 -264 -27 -76 -60 -152
-74 -169 -43 -52 -164 -93 -146 -49 47 114 95 275 95 319 0 159 -122 278 -282
276 -38 -1 -68 1 -68 3 0 2 24 75 54 162 66 195 66 195 55 238 -25 88 -174 98
-219 14 -6 -12 -83 -227 -171 -478 -88 -251 -166 -473 -175 -493 -18 -42 -70
-75 -131 -85 -39 -6 -40 -5 -47 27 -5 24 -2 38 13 53 46 51 91 190 91 280 -1
104 -55 192 -150 241 -172 88 -411 21 -506 -141 -14 -24 -59 -139 -100 -256
-41 -117 -86 -229 -100 -249 -40 -58 -82 -83 -139 -84 -46 0 -50 2 -53 26 -2
14 22 89 53 168 47 118 57 153 57 205 0 63 -26 145 -51 161 -8 4 3 23 33 55
102 109 152 287 114 411 -44 149 -275 241 -444 178 -52 -20 -58 -20 -66 -5
-25 45 -120 60 -175 26z m367 -245 c16 -8 34 -24 40 -34 25 -48 3 -154 -46
-218 l-25 -33 -73 7 c-90 7 -133 0 -180 -32 -20 -13 -36 -21 -36 -17 1 27 82
228 103 256 30 39 117 86 159 86 16 0 42 -7 58 -15z m868 -414 c24 -2 52 -41
52 -73 0 -17 -7 -58 -16 -90 -16 -55 -18 -58 -49 -58 -76 0 -154 -100 -140
-180 4 -22 18 -54 32 -71 22 -25 24 -34 15 -54 -26 -57 -118 -82 -164 -45 -42
33 -37 81 26 261 87 248 95 266 123 284 31 20 72 33 93 29 8 -1 21 -3 28 -3z
m905 -19 c23 -20 22 -68 -4 -136 -19 -48 -25 -56 -48 -56 -41 0 -90 -36 -111
-83 -26 -56 -25 -94 5 -153 31 -61 31 -75 2 -102 -56 -53 -149 -49 -164 6 -10
40 -8 50 65 262 60 175 71 199 108 237 55 55 103 63 147 25z m839 0 c26 -22
32 -73 14 -116 -23 -56 -103 -82 -171 -56 -31 12 -30 29 10 118 35 76 97 99
147 54z m2278 -273 c37 -63 50 -105 50 -164 0 -58 -28 -111 -70 -132 -34 -17
-95 -16 -135 3 -50 23 -51 41 -3 48 57 9 93 30 117 69 32 52 37 114 12 162
-41 77 -15 90 29 14z"/>
</g>
</svg>
